<svg width="1440" height="315" viewBox="0 0 1440 315" fill="none" xmlns="http://www.w3.org/2000/svg">
<path d="M-1.54224 315C47.4027 310.816 141.735 277.657 127.504 178.494C109.716 54.5409 150.791 56.8945 162.111 52.9719C173.43 49.0493 217.74 29.4364 231 -3.51318" stroke="#C1E5C0" stroke-width="2"/>
<path d="M-21.5945 315C27.3504 310.816 121.683 277.657 107.452 178.494C89.6635 54.5409 130.738 56.8945 142.058 52.9719C153.378 49.0493 197.687 29.4364 210.948 -3.51318" stroke="#C1E5C0" stroke-width="2"/>
<path d="M-41 315C7.9449 310.816 102.277 277.657 88.0464 178.494C70.258 54.5409 111.333 56.8945 122.653 52.9719C133.973 49.0493 178.282 29.4364 191.542 -3.51318" stroke="#C1E5C0" stroke-width="2"/>
<path d="M1429.8 319.113C1439.92 262.397 1430.99 145.469 1314.33 131.49C1168.51 114.016 1183.65 68.1997 1182.64 54.1856C1181.63 40.1714 1172.86 -15.9768 1139.56 -41.0001" stroke="#C1E5C0" stroke-width="2"/>
<path d="M1423.71 341.829C1433.83 285.112 1424.9 168.185 1308.25 154.206C1162.43 136.732 1177.56 90.9155 1176.55 76.9014C1175.55 62.8872 1166.78 6.73906 1133.48 -18.2843" stroke="#C1E5C0" stroke-width="2"/>
<path d="M1417.82 363.812C1427.94 307.096 1419.01 190.168 1302.35 176.189C1156.54 158.716 1171.67 112.899 1170.66 98.8848C1169.66 84.8706 1160.89 28.7225 1127.59 3.69907" stroke="#C1E5C0" stroke-width="2"/>
</svg>
